# xmcd
#
# Track frame offsets:
# 150
# 14890
# 28285
# 47360
# 64230
# 82029
# 99220
# 114052
# 135145
# 156867
#
# Disc length: 2339 seconds
#
#
# Revision: 2
# Processed by: cddbd v1.5.2PL0 Copyright (c) Steve Scherf et al.
# Submitted via: FreeRIP 2.96 
#
DISCID=7509210a
DTITLE=Pimpinela - Pasiones
DYEAR=1997
DGENRE=
TTITLE0=Amores del Alma
TTITLE1=Cuidala
TTITLE2=Damelo Todo
TTITLE3=Bronca
TTITLE4=Eo-Eo
TTITLE5=Ojala Que No Pase Nada
TTITLE6=Castigo del Cielo
TTITLE7=Amores Pasiones
TTITLE8=Aqui Estoy Yo
TTITLE9=El Canto de Mi Lamento
EXTD=
EXTT0=
EXTT1=
EXTT2=
EXTT3=
EXTT4=
EXTT5=
EXTT6=
EXTT7=
EXTT8=
EXTT9=
PLAYORDER=
